# xmcd CD database file
#
# Track frame offsets:
#	150
#	55832
#	90660
#	133781
#	172542
#	216336
#
# Disc length: 3628 seconds
#
# Revision: 1
# Processed by: cddbd v1.5.1PL0 Copyright (c) Steve Scherf et al.
# Submitted via: CDex 1.51
#
DISCID=4a0e2a06
DTITLE=Keiji Matsumoto - Live - 040714
DYEAR=2005
DGENRE=Jazz
TTITLE0=the Ring
TTITLE1=The Dance in the Past
TTITLE2=Circles
TTITLE3=Playback
TTITLE4=Something Like Cakes in Optics
TTITLE5=K.B.T.
EXTD=YEAR: 2005
EXTT0=
EXTT1=
EXTT2=
EXTT3=
EXTT4=
EXTT5=
PLAYORDER=
